<?xml version="1.0" encoding="UTF-8" standalone="no"?>
<!-- Created with Inkscape (http://www.inkscape.org/) -->

<svg
   xmlns:dc="http://purl.org/dc/elements/1.1/"
   xmlns:cc="http://creativecommons.org/ns#"
   xmlns:rdf="http://www.w3.org/1999/02/22-rdf-syntax-ns#"
   xmlns:svg="http://www.w3.org/2000/svg"
   xmlns="http://www.w3.org/2000/svg"
   xmlns:sodipodi="http://sodipodi.sourceforge.net/DTD/sodipodi-0.dtd"
   xmlns:inkscape="http://www.inkscape.org/namespaces/inkscape"
   version="1.1"
   id="svg2"
   xml:space="preserve"
   width="620"
   height="420"
   viewBox="0 0 620 420"
   sodipodi:docname="abrasion_effect.svg"
   inkscape:version="0.92.4 (5da689c313, 2019-01-14)"><metadata
     id="metadata8"><rdf:RDF><cc:Work
         rdf:about=""><dc:format>image/svg+xml</dc:format><dc:type
           rdf:resource="http://purl.org/dc/dcmitype/StillImage" /><dc:title></dc:title></cc:Work></rdf:RDF></metadata><defs
     id="defs6"><marker
       inkscape:stockid="Arrow1Lend"
       orient="auto"
       refY="0.0"
       refX="0.0"
       id="Arrow1Lend"
       style="overflow:visible;"
       inkscape:isstock="true"><path
         id="path1137"
         d="M 0.0,0.0 L 5.0,-5.0 L -12.5,0.0 L 5.0,5.0 L 0.0,0.0 z "
         style="fill-rule:evenodd;stroke:#000000;stroke-width:1pt;stroke-opacity:1;fill:#000000;fill-opacity:1"
         transform="scale(0.8) rotate(180) translate(12.5,0)" /></marker><clipPath
       clipPathUnits="userSpaceOnUse"
       id="clipPath26"><path
         d="M 0,3 V 1620 H 5 V 3 Z"
         id="path24"
         inkscape:connector-curvature="0" /></clipPath><clipPath
       clipPathUnits="userSpaceOnUse"
       id="clipPath36"><path
         d="M 0,3 V 20 H 3845 V 3 Z"
         id="path34"
         inkscape:connector-curvature="0" /></clipPath><clipPath
       clipPathUnits="userSpaceOnUse"
       id="clipPath138"><path
         d="m 3840,3 v 1617 h 10 V 3 Z"
         id="path136"
         inkscape:connector-curvature="0" /></clipPath><marker
       inkscape:stockid="Arrow1Lend"
       orient="auto"
       refY="0"
       refX="0"
       id="Arrow1Lend-3"
       style="overflow:visible"
       inkscape:isstock="true"><path
         inkscape:connector-curvature="0"
         id="path1137-7"
         d="M 0,0 5,-5 -12.5,0 5,5 Z"
         style="fill:#000000;fill-opacity:1;fill-rule:evenodd;stroke:#000000;stroke-width:1.00000003pt;stroke-opacity:1"
         transform="matrix(-0.8,0,0,-0.8,-10,0)" /></marker><marker
       inkscape:stockid="Arrow1Lend"
       orient="auto"
       refY="0"
       refX="0"
       id="Arrow1Lend-3-1"
       style="overflow:visible"
       inkscape:isstock="true"><path
         inkscape:connector-curvature="0"
         id="path1137-7-7"
         d="M 0,0 5,-5 -12.5,0 5,5 Z"
         style="fill:#000000;fill-opacity:1;fill-rule:evenodd;stroke:#000000;stroke-width:1.00000003pt;stroke-opacity:1"
         transform="matrix(-0.8,0,0,-0.8,-10,0)" /></marker><marker
       inkscape:stockid="Arrow1Lend"
       orient="auto"
       refY="0"
       refX="0"
       id="Arrow1Lend-3-1-8"
       style="overflow:visible"
       inkscape:isstock="true"><path
         inkscape:connector-curvature="0"
         id="path1137-7-7-7"
         d="M 0,0 5,-5 -12.5,0 5,5 Z"
         style="fill:#000000;fill-opacity:1;fill-rule:evenodd;stroke:#000000;stroke-width:1.00000003pt;stroke-opacity:1"
         transform="matrix(-0.8,0,0,-0.8,-10,0)" /></marker><marker
       inkscape:stockid="Arrow1Lend"
       orient="auto"
       refY="0"
       refX="0"
       id="Arrow1Lend-3-1-8-2"
       style="overflow:visible"
       inkscape:isstock="true"><path
         inkscape:connector-curvature="0"
         id="path1137-7-7-7-0"
         d="M 0,0 5,-5 -12.5,0 5,5 Z"
         style="fill:#000000;fill-opacity:1;fill-rule:evenodd;stroke:#000000;stroke-width:1.00000003pt;stroke-opacity:1"
         transform="matrix(-0.8,0,0,-0.8,-10,0)" /></marker><marker
       inkscape:stockid="Arrow1Lend"
       orient="auto"
       refY="0"
       refX="0"
       id="Arrow1Lend-3-1-8-2-4"
       style="overflow:visible"
       inkscape:isstock="true"><path
         inkscape:connector-curvature="0"
         id="path1137-7-7-7-0-6"
         d="M 0,0 5,-5 -12.5,0 5,5 Z"
         style="fill:#000000;fill-opacity:1;fill-rule:evenodd;stroke:#000000;stroke-width:1.00000003pt;stroke-opacity:1"
         transform="matrix(-0.8,0,0,-0.8,-10,0)" /></marker><marker
       inkscape:stockid="Arrow1Lend"
       orient="auto"
       refY="0"
       refX="0"
       id="Arrow1Lend-3-1-8-2-4-1"
       style="overflow:visible"
       inkscape:isstock="true"><path
         inkscape:connector-curvature="0"
         id="path1137-7-7-7-0-6-6"
         d="M 0,0 5,-5 -12.5,0 5,5 Z"
         style="fill:#000000;fill-opacity:1;fill-rule:evenodd;stroke:#000000;stroke-width:1.00000003pt;stroke-opacity:1"
         transform="matrix(-0.8,0,0,-0.8,-10,0)" /></marker><marker
       inkscape:stockid="Arrow1Lend"
       orient="auto"
       refY="0"
       refX="0"
       id="Arrow1Lend-3-1-8-2-4-1-2"
       style="overflow:visible"
       inkscape:isstock="true"><path
         inkscape:connector-curvature="0"
         id="path1137-7-7-7-0-6-6-5"
         d="M 0,0 5,-5 -12.5,0 5,5 Z"
         style="fill:#000000;fill-opacity:1;fill-rule:evenodd;stroke:#000000;stroke-width:1.00000003pt;stroke-opacity:1"
         transform="matrix(-0.8,0,0,-0.8,-10,0)" /></marker><marker
       inkscape:stockid="Arrow1Lend"
       orient="auto"
       refY="0"
       refX="0"
       id="Arrow1Lend-3-7"
       style="overflow:visible"
       inkscape:isstock="true"><path
         inkscape:connector-curvature="0"
         id="path1137-7-79"
         d="M 0,0 5,-5 -12.5,0 5,5 Z"
         style="fill:#000000;fill-opacity:1;fill-rule:evenodd;stroke:#000000;stroke-width:1.00000003pt;stroke-opacity:1"
         transform="matrix(-0.8,0,0,-0.8,-10,0)" /></marker><marker
       inkscape:stockid="Arrow1Lend"
       orient="auto"
       refY="0"
       refX="0"
       id="Arrow1Lend-3-7-7"
       style="overflow:visible"
       inkscape:isstock="true"><path
         inkscape:connector-curvature="0"
         id="path1137-7-79-1"
         d="M 0,0 5,-5 -12.5,0 5,5 Z"
         style="fill:#000000;fill-opacity:1;fill-rule:evenodd;stroke:#000000;stroke-width:1.00000003pt;stroke-opacity:1"
         transform="matrix(-0.8,0,0,-0.8,-10,0)" /></marker><marker
       inkscape:stockid="Arrow1Lend"
       orient="auto"
       refY="0"
       refX="0"
       id="Arrow1Lend-3-7-7-3"
       style="overflow:visible"
       inkscape:isstock="true"><path
         inkscape:connector-curvature="0"
         id="path1137-7-79-1-9"
         d="M 0,0 5,-5 -12.5,0 5,5 Z"
         style="fill:#000000;fill-opacity:1;fill-rule:evenodd;stroke:#000000;stroke-width:1.00000003pt;stroke-opacity:1"
         transform="matrix(-0.8,0,0,-0.8,-10,0)" /></marker><marker
       inkscape:stockid="Arrow1Lend"
       orient="auto"
       refY="0"
       refX="0"
       id="Arrow1Lend-3-7-7-3-9"
       style="overflow:visible"
       inkscape:isstock="true"><path
         inkscape:connector-curvature="0"
         id="path1137-7-79-1-9-1"
         d="M 0,0 5,-5 -12.5,0 5,5 Z"
         style="fill:#000000;fill-opacity:1;fill-rule:evenodd;stroke:#000000;stroke-width:1.00000003pt;stroke-opacity:1"
         transform="matrix(-0.8,0,0,-0.8,-10,0)" /></marker><marker
       inkscape:stockid="Arrow1Lend"
       orient="auto"
       refY="0"
       refX="0"
       id="Arrow1Lend-3-7-7-3-9-5"
       style="overflow:visible"
       inkscape:isstock="true"><path
         inkscape:connector-curvature="0"
         id="path1137-7-79-1-9-1-3"
         d="M 0,0 5,-5 -12.5,0 5,5 Z"
         style="fill:#000000;fill-opacity:1;fill-rule:evenodd;stroke:#000000;stroke-width:1.00000003pt;stroke-opacity:1"
         transform="matrix(-0.8,0,0,-0.8,-10,0)" /></marker></defs><sodipodi:namedview
     pagecolor="#ffffff"
     bordercolor="#666666"
     borderopacity="1"
     objecttolerance="10"
     gridtolerance="10"
     guidetolerance="10"
     inkscape:pageopacity="0"
     inkscape:pageshadow="2"
     inkscape:window-width="2560"
     inkscape:window-height="1377"
     id="namedview4"
     showgrid="false"
     inkscape:zoom="1.5893067"
     inkscape:cx="336.16447"
     inkscape:cy="232.42004"
     inkscape:window-x="1912"
     inkscape:window-y="-8"
     inkscape:window-maximized="1"
     inkscape:current-layer="g12" /><g
     id="g10"
     inkscape:groupmode="layer"
     inkscape:label="ink_ext_XXXXXX"
     transform="matrix(1.3333333,0,0,-1.3333333,0,420)"><g
       id="g12"
       transform="scale(0.1)"><path
         d="m 3194.73,1616.48 c 0,-456.05 -242.58,-877.5 -636.37,-1105.5 -393.79,-228.05 -878.95,-228.05 -1272.73,0 -393.79,228 -636.368,649.45 -636.368,1105.5"
         style="fill:none;stroke:#ff00ff;stroke-width:26.99250031;stroke-linecap:butt;stroke-linejoin:miter;stroke-miterlimit:4;stroke-dasharray:none;stroke-opacity:1"
         id="path14"
         inkscape:connector-curvature="0" /><path
         d="m 3201.99,1610.47 c 0,-706.919 -573.08,-1280.001 -1280,-1280.001 -706.91,0 -1280.002,573.082 -1280.002,1280.001"
         style="fill:none;stroke:#000000;stroke-width:4;stroke-linecap:butt;stroke-linejoin:round;stroke-miterlimit:10;stroke-dasharray:none;stroke-opacity:1"
         id="path16"
         inkscape:connector-curvature="0" /><path
         d="m 3201.99,1614.65 h 640"
         style="fill:none;stroke:#000000;stroke-width:4;stroke-linecap:butt;stroke-linejoin:round;stroke-miterlimit:10;stroke-dasharray:none;stroke-opacity:1"
         id="path18"
         inkscape:connector-curvature="0" /><g
         id="g20"><g
           id="g22"
           clip-path="url(#clipPath26)"><path
             d="M 1.98828,1610.47 V 10.4688"
             style="fill:none;stroke:#000000;stroke-width:4;stroke-linecap:butt;stroke-linejoin:round;stroke-miterlimit:10;stroke-dasharray:none;stroke-opacity:1"
             id="path28"
             inkscape:connector-curvature="0" /></g></g><g
         id="g30"><g
           id="g32"
           clip-path="url(#clipPath36)"><path
             d="m 1.98828,10.4688 c 1344.03172,0 1728.01172,0 2160.00172,0 431.99,0 911.99,0 1680,0"
             style="fill:none;stroke:#000000;stroke-width:4;stroke-linecap:butt;stroke-linejoin:round;stroke-miterlimit:10;stroke-dasharray:none;stroke-opacity:1"
             id="path38"
             inkscape:connector-curvature="0" /></g></g><path
         d="M 641.988,1610.47 H 1.98828"
         style="fill:none;stroke:#000000;stroke-width:4;stroke-linecap:butt;stroke-linejoin:round;stroke-miterlimit:10;stroke-dasharray:none;stroke-opacity:1"
         id="path76"
         inkscape:connector-curvature="0" /><path
         d="m 3201.99,1610.47 c 0,706.95 -573.08,1280 -1280,1280 -706.91,0 -1280.002,-573.05 -1280.002,-1280 0,-706.919 573.092,-1280.001 1280.002,-1280.001 706.92,0 1280,573.082 1280,1280.001"
         style="fill:none;stroke:#0000ff;stroke-width:8;stroke-linecap:butt;stroke-linejoin:round;stroke-miterlimit:10;stroke-dasharray:none;stroke-opacity:1"
         id="path78"
         inkscape:connector-curvature="0" /><path
         d="m 1925.74,42.0703 c 133.36,27.5 262.66,71.9497 384.81,132.1917"
         style="fill:none;stroke:#ffffff;stroke-width:8;stroke-linecap:butt;stroke-linejoin:round;stroke-miterlimit:10;stroke-dasharray:none;stroke-opacity:1"
         id="path104"
         inkscape:connector-curvature="0" /><path
         d="m 1922.03,42.0313 c -133.36,27.5 -262.65,71.9487 -384.8,132.1877"
         style="fill:none;stroke:#ffffff;stroke-width:8;stroke-linecap:butt;stroke-linejoin:round;stroke-miterlimit:10;stroke-dasharray:none;stroke-opacity:1"
         id="path106"
         inkscape:connector-curvature="0" /><path
         d="m 1914.61,34.2617 h 14.8789 V 49.7695 H 1914.61 Z"
         style="fill:#ffffff;fill-opacity:1;fill-rule:evenodd;stroke:none"
         id="path114"
         inkscape:connector-curvature="0" /><path
         d="m 4001.99,490.469 h 480"
         style="fill:none;stroke:#000000;stroke-width:4;stroke-linecap:butt;stroke-linejoin:round;stroke-miterlimit:10;stroke-dasharray:none;stroke-opacity:1"
         id="path116"
         inkscape:connector-curvature="0" /><path
         d="m 4481.99,490.469 -70,23.32 v -46.598 z"
         style="fill:#000000;fill-opacity:1;fill-rule:evenodd;stroke:none"
         id="path118"
         inkscape:connector-curvature="0" /><path
         d="m 4481.99,490.469 -70,23.32 v -46.598 z"
         style="fill:none;stroke:#000000;stroke-width:4;stroke-linecap:butt;stroke-linejoin:round;stroke-miterlimit:10;stroke-dasharray:none;stroke-opacity:1"
         id="path120"
         inkscape:connector-curvature="0" /><path
         d="m 4001.99,490.469 v 480"
         style="fill:none;stroke:#000000;stroke-width:4;stroke-linecap:butt;stroke-linejoin:round;stroke-miterlimit:10;stroke-dasharray:none;stroke-opacity:1"
         id="path122"
         inkscape:connector-curvature="0" /><path
         d="m 4001.99,970.469 -23.32,-70 h 46.64 z"
         style="fill:#000000;fill-opacity:1;fill-rule:evenodd;stroke:none"
         id="path124"
         inkscape:connector-curvature="0" /><path
         d="m 4001.99,970.469 -23.32,-70 h 46.64 z"
         style="fill:none;stroke:#000000;stroke-width:4;stroke-linecap:butt;stroke-linejoin:round;stroke-miterlimit:10;stroke-dasharray:none;stroke-opacity:1"
         id="path126"
         inkscape:connector-curvature="0" /><path
         d="m 4642.46,602.809 c 1.09,1.101 2.03,2.191 2.03,3.91 0,1.25 -0.31,1.402 -4.22,1.402 h -71.09 c -3.91,0 -4.06,-0.152 -5.16,-3.281 l -9.53,-31.09 c -0.47,-1.719 -0.47,-2.031 -0.47,-2.34 0,-0.629 0.47,-1.719 1.72,-1.719 1.41,0 1.72,0.618 2.35,2.969 6.4,18.59 14.84,30.461 42.03,30.461 h 28.28 L 4534.02,496.25 c -1.56,-1.879 -2.18,-2.5 -2.18,-4.379 0,-1.402 0.78,-1.402 4.06,-1.402 h 73.59 c 3.91,0 4.06,0.152 5.16,3.281 l 12.03,37.969 c 0.16,0.621 0.47,1.871 0.47,2.5 0,0.781 -0.63,1.722 -1.72,1.722 -1.41,0 -1.56,-0.16 -2.81,-4.531 -7.35,-22.191 -14.85,-35.629 -44.85,-35.629 h -29.84 z"
         style="fill:#000000;fill-opacity:1;fill-rule:nonzero;stroke:none"
         id="path128"
         inkscape:connector-curvature="0" /><path
         d="m 4103.24,1108.91 3.91,4.06 c 7.65,7.65 14.06,9.53 20,10.15 1.87,0.16 3.44,0.32 3.44,3.29 0,1.71 -1.72,1.71 -2.04,1.71 -2.03,0 -4.37,-0.46 -6.4,-0.46 h -7.03 c -5,0 -10.32,0.46 -15.16,0.46 -1.25,0 -3.12,0 -3.12,-3.28 0,-1.56 1.71,-1.72 2.34,-1.72 5.16,-0.31 5.16,-2.96 5.16,-4.06 0,-1.87 -1.41,-4.37 -4.85,-8.44 l -41.09,-46.87 -19.38,52.34 c -1.09,2.35 -1.09,2.66 -1.09,2.97 0,3.75 7.19,4.06 9.22,4.06 2.03,0 3.9,0 3.9,3.13 0,1.87 -1.56,1.87 -2.5,1.87 -2.96,0 -6.4,-0.46 -9.37,-0.46 h -19.06 c -3.13,0 -6.41,0.46 -9.38,0.46 -1.25,0 -3.12,0 -3.12,-3.28 0,-1.72 1.56,-1.72 4.22,-1.72 8.43,0 10,-1.56 11.56,-5.62 l 21.25,-57.34 c 0.15,-0.47 0.78,-2.35 0.78,-2.82 0,-0.62 -8.44,-34.53 -9.06,-36.25 -1.25,-4.53 -2.97,-5.47 -14.07,-5.62 -2.96,0 -4.37,0 -4.37,-3.28 0,-1.72 2.03,-1.72 2.5,-1.72 3.12,0 6.72,0.31 10,0.31 h 20.31 c 3.13,0 6.72,-0.31 9.85,-0.31 1.09,0 3.28,0 3.28,3.12 0,1.88 -1.25,1.88 -4.22,1.88 -10.63,0 -10.63,1.25 -10.63,3.12 0,1.25 1.41,6.72 2.19,10.16 l 6.25,24.84 c 0.94,3.6 0.94,3.91 2.5,5.63 z"
         style="fill:#000000;fill-opacity:1;fill-rule:nonzero;stroke:none"
         id="path130"
         inkscape:connector-curvature="0" /><g
         id="g132"><g
           id="g134"
           clip-path="url(#clipPath138)"><path
             d="M 3844.45,1610.47 V 10.4688"
             style="fill:none;stroke:#000000;stroke-width:4;stroke-linecap:butt;stroke-linejoin:round;stroke-miterlimit:10;stroke-dasharray:none;stroke-opacity:1"
             id="path140"
             inkscape:connector-curvature="0" /></g></g><path
         d="m 1928.2,42.0703 c 133.36,27.5 262.66,71.9497 384.81,132.1917"
         style="fill:none;stroke:#ffffff;stroke-width:8;stroke-linecap:butt;stroke-linejoin:round;stroke-miterlimit:10;stroke-dasharray:none;stroke-opacity:1"
         id="path218"
         inkscape:connector-curvature="0" /><path
         d="m 1924.49,42.0313 c -133.36,27.5 -262.65,71.9487 -384.8,132.1877"
         style="fill:none;stroke:#ffffff;stroke-width:8;stroke-linecap:butt;stroke-linejoin:round;stroke-miterlimit:10;stroke-dasharray:none;stroke-opacity:1"
         id="path220"
         inkscape:connector-curvature="0" /><path
         d="m 1917.03,34.2617 h 14.918 v 15.5078 h -14.918 z"
         style="fill:#ffffff;fill-opacity:1;fill-rule:evenodd;stroke:none"
         id="path230"
         inkscape:connector-curvature="0" /><path
         d="M 2693.13,602.23 C 3052.97,294.102 3052.97,294.102 3052.97,294.102"
         style="fill:#ff00ff;fill-opacity:1;fill-rule:nonzero;stroke:none"
         id="path232"
         inkscape:connector-curvature="0" /><path
         d="M 2693.13,602.23 C 3052.97,294.102 3052.97,294.102 3052.97,294.102"
         style="fill:none;stroke:#000000;stroke-width:10.0710001;stroke-linecap:butt;stroke-linejoin:miter;stroke-miterlimit:4;stroke-dasharray:none;stroke-opacity:1"
         id="path234"
         inkscape:connector-curvature="0" /><path
         d="m 2976.48,359.609 -56.79,-4.41 133.28,-61.097 -80.9,122.308 z"
         style="fill:#ff00ff;fill-opacity:1;fill-rule:evenodd;stroke:none"
         id="path236"
         inkscape:connector-curvature="0" /><path
         d="m 2976.48,359.609 -56.79,-4.41 133.28,-61.097 -80.9,122.308 z"
         style="fill:none;stroke:#000000;stroke-width:10.74240017;stroke-linecap:butt;stroke-linejoin:miter;stroke-miterlimit:4;stroke-dasharray:none;stroke-opacity:1"
         id="path238"
         inkscape:connector-curvature="0" /><path
         d="m 2942.38,2378.83 c 390.75,267.85 390.75,267.85 390.75,267.85"
         style="fill:#0000ff;fill-opacity:1;fill-rule:nonzero;stroke:none"
         id="path240"
         inkscape:connector-curvature="0" /><path
         d="m 2942.38,2378.83 c 390.75,267.85 390.75,267.85 390.75,267.85"
         style="fill:none;stroke:#000000;stroke-width:10.0710001;stroke-linecap:butt;stroke-linejoin:miter;stroke-miterlimit:4;stroke-dasharray:none;stroke-opacity:1"
         id="path242"
         inkscape:connector-curvature="0" /><path
         d="m 3250.04,2589.73 -10.43,-56.02 93.52,112.97 -139.07,-46.48 z"
         style="fill:#0000ff;fill-opacity:1;fill-rule:evenodd;stroke:none"
         id="path244"
         inkscape:connector-curvature="0" /><path
         d="m 3250.04,2589.73 -10.43,-56.02 93.52,112.97 -139.07,-46.48 z"
         style="fill:none;stroke:#000000;stroke-width:10.74240017;stroke-linecap:butt;stroke-linejoin:miter;stroke-miterlimit:4;stroke-dasharray:none;stroke-opacity:1"
         id="path246"
         inkscape:connector-curvature="0" /><path
         d="m 3109.38,275.16 c 4.76,4.762 10.19,7.18 16.28,7.18 3.25,0 5.59,-1.051 7,-3.121 1.4,-2.028 2.14,-4.098 2.14,-6.168 0,-1.531 -0.5,-2.891 -1.48,-4.071 -0.98,-1.21 -2.46,-1.789 -4.41,-1.789 -3.56,0 -5.59,1.598 -6.02,4.879 -0.19,1.52 -0.04,2.66 0.51,3.399 0,0.121 0.04,0.269 0.15,0.511 v 0.149 c -3.04,-0.309 -5.93,-1.52 -8.63,-3.59 -0.86,-0.551 -1.33,-0.898 -1.33,-1.129 0,-0.121 0.24,-0.39 0.67,-0.82 0.43,-0.43 0.94,-1.059 1.48,-1.961 0.55,-0.859 1.14,-1.828 1.8,-2.93 0.62,-1.09 1.13,-2.5 1.44,-4.219 0.32,-1.75 0.55,-3.55 0.67,-5.39 0,-6.719 -2.66,-12.418 -8.01,-17.11 -5.31,-4.64 -11.87,-7.031 -19.69,-7.14 -5.43,0 -10.82,1.519 -16.13,4.57 -1.21,-1.961 -1.8,-4.031 -1.8,-6.211 0,-3.789 1.41,-6.609 4.22,-8.48 0.98,-0.629 1.92,-0.981 2.78,-0.981 0.89,0 4.8,-0.117 11.75,-0.308 9.11,-0.121 14.96,-0.43 17.58,-0.981 6.64,-0.969 11.84,-3.199 15.63,-6.679 4.25,-4.25 6.36,-9.571 6.36,-15.969 0,-7.27 -4.21,-12.852 -12.69,-16.762 -6.52,-3.398 -14.22,-5.078 -23.13,-5.078 -9.02,0 -16.79,1.68 -23.32,5.078 -8.47,3.793 -12.69,9.223 -12.69,16.293 0,3.898 1.13,7.148 3.4,9.758 2.3,2.621 4.57,4.422 6.87,5.39 l 1.8,0.981 c -3.95,3.359 -5.9,7.891 -5.9,13.668 0,5.121 1.6,9.73 4.73,13.832 -4.77,4.809 -7.15,10.16 -7.15,16.129 0,6.84 2.69,12.621 8.12,17.269 5.43,4.692 12.03,7.071 19.73,7.192 5.55,0 10.7,-1.41 15.47,-4.262 z m -4.89,-10.75 c -0.54,3.051 -1.95,5.43 -4.26,7.149 -2.26,1.761 -5.07,2.66 -8.43,2.781 -3.17,0 -5.9,-0.86 -8.17,-2.578 -2.26,-1.762 -3.67,-4.223 -4.22,-7.352 -0.35,-1.828 -0.5,-4.609 -0.5,-8.32 0,-4.758 0.39,-8.32 1.13,-10.578 0.78,-2.274 2.42,-4.18 4.88,-5.711 1.88,-1.09 4.18,-1.641 7.03,-1.641 2.39,0 4.46,0.391 6.18,1.18 1.75,0.742 3,1.711 3.75,2.93 0.78,1.171 1.36,2.261 1.79,3.242 0.43,0.968 0.71,1.789 0.82,2.457 0.31,1.722 0.47,4.453 0.47,8.121 0,3.711 -0.16,6.492 -0.47,8.32 z m 16.96,-68.078 c 0,2.688 -0.79,4.918 -2.31,6.68 -1.52,1.718 -3.75,2.968 -6.68,3.75 -2.93,0.738 -5.58,1.25 -7.97,1.437 -2.38,0.242 -5.31,0.321 -8.79,0.321 h -4.41 c -7.27,0 -11.6,-0.321 -13.05,-0.981 -2.15,-0.98 -3.83,-2.5 -5.04,-4.527 -1.17,-2.071 -1.83,-4.262 -1.95,-6.532 0,-1.089 0.31,-2.339 0.98,-3.75 0.66,-1.398 1.79,-3.039 3.43,-4.878 1.61,-1.832 4.22,-3.364 7.82,-4.571 3.59,-1.211 7.93,-1.832 13.04,-1.949 7.46,0 13.52,1.52 18.05,4.566 4.57,3.051 6.88,6.524 6.88,10.434 z"
         style="fill:#000000;fill-opacity:1;fill-rule:nonzero;stroke:none"
         id="path248"
         inkscape:connector-curvature="0" /><path
         d="m 3143.09,216.02 h 2.3 c 4.22,0 6.76,0.781 7.66,2.3 v 1.289 c 0,0.981 0,2.231 0,3.75 0,1.52 0.04,3.2 0.15,5.039 0.12,1.832 0.12,3.981 0,6.372 -0.11,2.378 -0.11,4.64 0,6.832 0,3.359 0,6.949 0,10.738 0,3.832 0,7.031 0,9.609 l -0.15,3.75 c -0.35,2.071 -1.1,3.442 -2.31,4.071 -1.17,0.66 -3.63,1.171 -7.3,1.48 h -2.93 V 275 c 0,2.5 0.08,3.75 0.31,3.75 l 1.64,0.16 c 1.06,0.11 2.58,0.231 4.53,0.309 1.96,0.121 3.91,0.23 5.86,0.351 1.76,0.078 3.67,0.2 5.7,0.309 2.08,0.121 3.68,0.281 4.73,0.512 1.1,0.199 1.68,0.23 1.8,0.16 h 0.51 v -11.25 c 4.21,7.379 9.49,11.09 15.78,11.09 h 0.97 c 4.89,0 8.48,-1.211 10.79,-3.59 2.26,-2.391 3.39,-4.891 3.39,-7.5 0,-2.27 -0.7,-4.219 -2.11,-5.86 -1.4,-1.64 -3.47,-2.461 -6.21,-2.461 -2.69,0 -4.72,0.891 -6.01,2.61 -1.29,1.719 -1.99,3.601 -2.11,5.551 0,0.98 0.12,1.839 0.31,2.621 0.24,0.738 0.51,1.398 0.82,1.949 0.31,0.508 0.51,0.777 0.51,0.777 -0.24,0.242 -1.49,0 -3.75,-0.617 -1.76,-0.902 -3.05,-1.68 -3.91,-2.461 -5.11,-4.89 -7.65,-14.609 -7.65,-29.14 v -8.641 c 0,-1.399 0,-2.891 0,-4.41 0,-1.52 0,-2.93 0,-4.219 0,-1.328 0.04,-2.418 0.15,-3.281 0.12,-0.86 0.12,-1.68 0,-2.418 v -0.821 c 0.12,-0.242 0.28,-0.429 0.47,-0.671 0.24,-0.188 0.51,-0.387 0.82,-0.469 0.31,-0.11 0.59,-0.27 0.82,-0.5 0.24,-0.199 0.59,-0.32 1.13,-0.32 0.55,0 0.94,-0.071 1.14,-0.149 0.23,-0.121 0.7,-0.199 1.48,-0.199 0.74,0 1.25,0 1.45,0 0.23,0 0.78,-0.043 1.64,-0.152 0.86,-0.079 1.4,-0.079 1.64,0 h 5.04 v -7.5 h -1.45 c -1.95,0.351 -8.86,0.5 -20.7,0.5 -11.17,0 -17.27,-0.149 -18.24,-0.5 h -1.29 v 7.5 z"
         style="fill:#000000;fill-opacity:1;fill-rule:nonzero;stroke:none"
         id="path250"
         inkscape:connector-curvature="0" /><path
         d="m 3205.66,243.398 c 0,10.313 3.52,19.223 10.59,26.723 7.03,7.5 15.59,11.289 25.55,11.399 9.8,0 18.2,-3.711 25.27,-11.09 7.07,-7.379 10.63,-16.328 10.74,-26.879 0,-10.313 -3.47,-18.981 -10.43,-26.051 -6.95,-7.07 -15.47,-10.59 -25.58,-10.59 -10.51,0 -19.14,3.641 -25.9,10.899 -6.72,7.273 -10.16,15.82 -10.24,25.589 z m 36.14,-29.957 c 13.28,0 19.88,8.829 19.88,26.52 v 9.301 c 0,2.379 -0.04,4.449 -0.16,6.168 -0.11,1.761 -0.47,3.832 -1.13,6.211 -0.66,2.379 -1.52,4.339 -2.62,5.859 -1.09,1.52 -2.77,3.051 -5.04,4.57 -2.3,1.52 -4.96,2.621 -8,3.239 -0.51,0.121 -1.41,0.16 -2.58,0.16 -3.28,0 -6.37,-0.629 -9.3,-1.949 -4.65,-2.391 -7.69,-5.711 -9.1,-9.93 -1.45,-4.219 -2.15,-9.219 -2.15,-15 v -3.238 c 0,-10.43 1.06,-17.77 3.13,-21.993 3.47,-6.64 9.14,-9.918 17.07,-9.918 z"
         style="fill:#000000;fill-opacity:1;fill-rule:nonzero;stroke:none"
         id="path252"
         inkscape:connector-curvature="0" /><path
         d="m 3287.11,243.398 c 0,10.313 3.52,19.223 10.59,26.723 7.07,7.5 15.58,11.289 25.58,11.399 9.77,0 18.17,-3.711 25.24,-11.09 7.07,-7.379 10.62,-16.328 10.74,-26.879 0,-10.313 -3.48,-18.981 -10.43,-26.051 -6.95,-7.07 -15.47,-10.59 -25.55,-10.59 -10.55,0 -19.18,3.641 -25.94,10.899 -6.71,7.273 -10.11,15.82 -10.23,25.589 z m 36.17,-29.957 c 13.24,0 19.85,8.829 19.85,26.52 v 9.301 c 0,2.379 -0.04,4.449 -0.16,6.168 -0.12,1.761 -0.47,3.832 -1.13,6.211 -0.67,2.379 -1.53,4.339 -2.62,5.859 -1.09,1.52 -2.77,3.051 -5.04,4.57 -2.27,1.52 -4.96,2.621 -7.97,3.239 -0.55,0.121 -1.44,0.16 -2.62,0.16 -3.24,0 -6.36,-0.629 -9.29,-1.949 -4.65,-2.391 -7.7,-5.711 -9.1,-9.93 -1.41,-4.219 -2.15,-9.219 -2.15,-15 v -3.238 c 0,-10.43 1.05,-17.77 3.12,-21.993 3.48,-6.64 9.18,-9.918 17.11,-9.918 z"
         style="fill:#000000;fill-opacity:1;fill-rule:nonzero;stroke:none"
         id="path254"
         inkscape:connector-curvature="0" /><path
         d="m 3419.06,278.75 c 0.63,-0.23 5.2,-0.309 13.67,-0.309 6.18,0 10.59,0.079 13.21,0.309 h 0.82 v -7.5 h -1.8 c -6.29,-0.43 -10.31,-2.621 -12.07,-6.52 -0.19,-0.429 -3.87,-9.808 -10.9,-28.171 -7.07,-18.36 -10.74,-27.809 -11.09,-28.36 -0.55,-0.969 -1.88,-1.437 -4.06,-1.437 -2.07,0 -3.36,0.468 -3.91,1.437 -15.2,39.223 -22.85,59.102 -22.97,59.61 -0.55,1.531 -1.41,2.461 -2.62,2.781 -1.17,0.351 -3.32,0.539 -6.36,0.66 h -3.91 v 7.5 h 0.98 l 1.33,-0.16 c 0.85,0 1.95,0 3.24,0 1.33,0 2.73,0 4.26,0 1.52,0 2.85,-0.07 4.06,-0.149 1.17,-0.121 2.15,-0.203 2.93,-0.203 10.31,0 16.29,0.203 17.93,0.512 h 1.29 v -7.5 h -2.27 c -4.26,-0.121 -6.52,-0.941 -6.87,-2.461 0,-0.43 2.77,-7.809 8.32,-22.148 l 8.32,-21.481 14.8,38.942 v 1.289 c 0,1.519 -0.55,2.769 -1.6,3.75 -1.09,0.98 -2.07,1.558 -2.93,1.8 -0.9,0.188 -1.64,0.309 -2.31,0.309 h -0.66 v 7.5 z"
         style="fill:#000000;fill-opacity:1;fill-rule:nonzero;stroke:none"
         id="path256"
         inkscape:connector-curvature="0" /><path
         d="m 3454.57,244.059 c 0,5.941 1.09,11.371 3.24,16.293 2.19,4.878 4.89,8.828 8.17,11.878 3.24,3.04 6.75,5.309 10.58,6.829 3.79,1.531 7.39,2.351 10.74,2.461 5.75,0 10.71,-0.969 14.85,-2.93 4.1,-1.949 7.26,-4.68 9.41,-8.16 2.19,-3.481 3.71,-6.95 4.57,-10.43 0.86,-3.48 1.37,-7.301 1.49,-11.559 0,-0.742 -0.39,-1.531 -1.14,-2.269 h -45.97 v -2.461 c 0,-16.051 5.47,-25.82 16.33,-29.301 2.14,-0.66 4.53,-0.969 7.14,-0.969 4.57,0 8.48,1.719 11.72,5.188 1.88,1.84 3.32,4.141 4.42,6.84 l 1.64,3.902 c 0.31,0.359 1.17,0.508 2.58,0.508 h 0.5 c 1.84,0 2.78,-0.539 2.78,-1.641 0,-0.429 -0.16,-1.129 -0.51,-2.109 -2.07,-5.969 -5.47,-10.699 -10.27,-14.18 -4.77,-3.469 -10.12,-5.187 -16.1,-5.187 -10.35,0 -18.9,3.75 -25.74,11.207 -6.84,7.5 -10.31,16.211 -10.43,26.09 z m 49.69,9.261 c -1.21,13.91 -6.37,21.289 -15.47,22.149 h -0.35 c -0.86,0 -1.72,-0.039 -2.62,-0.16 -0.86,-0.11 -2.19,-0.539 -4.06,-1.289 -1.84,-0.782 -3.4,-1.911 -4.73,-3.43 -1.29,-1.531 -2.54,-3.75 -3.75,-6.68 -1.17,-2.93 -2.03,-6.488 -2.58,-10.75 v -1.129 h 33.56 z"
         style="fill:#000000;fill-opacity:1;fill-rule:nonzero;stroke:none"
         id="path258"
         inkscape:connector-curvature="0" /><path
         d="m 3397.19,2706.25 c 0,0 -1.17,0 -3.44,0 -2.27,0 -4.22,0.82 -5.86,2.46 -1.64,1.6 -2.5,3.67 -2.62,6.17 0,2.5 0.82,4.57 2.46,6.17 0.55,0.55 0.82,0.9 0.82,1.02 0,0.08 -0.54,0.2 -1.64,0.31 -2.81,0.43 -5.46,0.67 -7.96,0.67 -5.36,0 -9.69,-1.76 -13.05,-5.24 -5.12,-5.11 -7.66,-13.63 -7.66,-25.58 0,-8.91 1.68,-15.9 5.04,-21.02 4.45,-6.6 10.43,-9.92 17.93,-9.92 4.45,0 8.05,1.41 10.74,4.26 2.74,2.81 4.69,6.17 5.86,10.07 0.24,0.86 0.51,1.41 0.82,1.65 0.35,0.19 1.21,0.31 2.62,0.31 h 2.27 c 0.66,-0.67 0.97,-1.13 0.97,-1.45 0,-0.47 -0.19,-1.33 -0.62,-2.61 -0.43,-1.33 -1.33,-3.09 -2.62,-5.4 -1.29,-2.26 -2.89,-4.33 -4.73,-6.17 -1.83,-1.83 -4.45,-3.55 -7.81,-5.04 -3.36,-1.52 -7.11,-2.22 -11.25,-2.14 -9.33,0 -17.46,3.47 -24.41,10.43 -6.96,6.95 -10.51,15.7 -10.59,26.25 0,11.28 3.52,20.46 10.59,27.5 7.03,7.07 15.23,10.58 24.57,10.58 9.33,0 15.86,-1.44 19.57,-4.37 3.67,-2.93 5.51,-6.41 5.51,-10.43 0,-2.5 -0.9,-4.53 -2.74,-6.02 z"
         style="fill:#000000;fill-opacity:1;fill-rule:nonzero;stroke:none"
         id="path260"
         inkscape:connector-curvature="0" /><path
         d="m 3431.56,2706.25 c 0,0 -1.21,0 -3.59,0 -2.38,0 -4.42,0.82 -6.02,2.46 -1.64,1.6 -2.46,3.71 -2.46,6.33 0,3.83 1.84,7.19 5.55,10.12 3.67,2.93 10.23,4.37 19.69,4.37 7.93,0 14.33,-1.72 19.22,-5.19 4.88,-3.48 8.16,-7.62 9.8,-12.39 0.51,-1.52 0.78,-3.2 0.78,-5.04 0,-1.87 0.08,-8.08 0.2,-18.75 v -11.4 c 0,-5.2 0.27,-8.79 0.78,-10.74 0.54,-1.96 1.72,-2.93 3.44,-2.93 1.64,0 2.73,0.86 3.24,2.61 0.54,1.72 0.82,4.61 0.82,8.64 v 5.86 h 6.52 v -6.37 c -0.12,-4.34 -0.27,-6.88 -0.47,-7.66 -0.97,-3.24 -2.89,-5.82 -5.7,-7.65 -2.85,-1.84 -5.82,-2.82 -8.98,-2.93 -3.13,-0.12 -5.71,0.86 -7.66,2.93 -1.95,2.07 -3.24,4.33 -3.91,6.83 v 0.67 l -0.31,-0.47 c -0.23,-0.35 -0.51,-0.67 -0.82,-0.98 -0.31,-0.35 -0.74,-0.82 -1.29,-1.48 -0.55,-0.67 -1.21,-1.25 -1.95,-1.8 -0.78,-0.55 -1.6,-1.17 -2.46,-1.95 -0.86,-0.75 -1.84,-1.37 -2.93,-1.8 -1.1,-0.43 -2.27,-0.86 -3.6,-1.29 -1.29,-0.43 -2.69,-0.78 -4.22,-0.98 -1.52,-0.23 -3.2,-0.39 -5.03,-0.5 -6.53,0 -12.39,1.68 -17.62,5.07 -5.2,3.36 -7.81,8.09 -7.81,14.14 0,2.31 0.39,4.46 1.13,6.53 0.78,2.07 2.23,4.29 4.41,6.68 2.15,2.38 4.77,4.41 7.82,6.01 3.04,1.64 7.26,3.17 12.69,4.57 5.43,1.41 11.41,2.23 17.93,2.46 h 2.27 v 3.56 c 0,3.71 -0.32,6.41 -0.98,8.16 -2.38,7.7 -7.66,11.57 -15.78,11.57 -1.96,0 -3.79,-0.04 -5.55,-0.16 -1.72,-0.12 -3.08,-0.31 -4.06,-0.66 -0.98,-0.32 -1.41,-0.47 -1.33,-0.47 2.42,-1.64 3.59,-4.03 3.59,-7.19 0,-2.7 -0.86,-4.84 -2.61,-6.33 z m -1.79,-32.42 c 0,-3.36 1.28,-6.33 3.9,-8.95 2.58,-2.61 5.78,-3.98 9.61,-4.06 4.1,0 7.77,1.25 10.9,3.75 3.16,2.46 5.27,5.74 6.37,9.77 0.19,0.74 0.39,4.33 0.47,10.74 0,6.29 -0.04,9.45 -0.16,9.45 -0.86,0 -1.99,-0.08 -3.4,-0.16 -1.44,-0.11 -3.87,-0.62 -7.34,-1.48 -3.48,-0.86 -6.64,-1.95 -9.46,-3.24 -2.81,-1.33 -5.31,-3.32 -7.5,-6.06 -2.14,-2.69 -3.32,-5.97 -3.39,-9.76 z"
         style="fill:#000000;fill-opacity:1;fill-rule:nonzero;stroke:none"
         id="path262"
         inkscape:connector-curvature="0" /><path
         d="m 3540.66,2654.77 c -7.89,0 -15.46,3.59 -22.61,10.78 l -1.64,-2.97 c -0.2,-0.31 -0.47,-0.78 -0.82,-1.45 -0.32,-0.66 -0.63,-1.25 -0.98,-1.79 -0.31,-0.55 -0.55,-0.94 -0.63,-1.14 l -0.82,-1.48 -3.28,-0.16 h -3.24 v 48.56 c 0,32.69 -0.04,49.25 -0.16,49.68 -0.35,2.07 -1.09,3.4 -2.3,4.07 -1.17,0.66 -3.63,1.13 -7.3,1.44 h -2.93 v 3.75 c 0,2.5 0.07,3.75 0.31,3.75 l 1.64,0.16 c 1.05,0.12 2.65,0.23 4.73,0.35 2.03,0.12 4.06,0.2 6.01,0.31 1.84,0.12 3.87,0.24 6.02,0.32 2.18,0.11 3.82,0.27 4.88,0.5 1.09,0.24 1.68,0.28 1.8,0.16 h 0.5 V 2745 c 0,-16.48 0.04,-24.73 0.16,-24.73 l 0.47,0.47 c 0.35,0.31 0.82,0.71 1.48,1.13 0.67,0.43 1.45,0.98 2.43,1.65 0.97,0.66 2.14,1.21 3.43,1.64 1.29,0.43 2.74,0.97 4.22,1.6 1.52,0.66 3.28,1.09 5.24,1.33 1.95,0.19 3.94,0.39 6.01,0.46 8.48,0 15.98,-3.39 22.5,-10.23 6.49,-6.87 9.81,-15.7 9.92,-26.56 0,-10.98 -3.47,-19.89 -10.43,-26.72 -6.95,-6.84 -15.15,-10.27 -24.61,-10.27 z m -20.35,17.77 c 0,-0.12 0.28,-0.55 0.82,-1.33 0.55,-0.74 1.02,-1.33 1.49,-1.76 0.43,-0.47 0.97,-1.09 1.6,-1.95 0.66,-0.9 1.33,-1.52 1.95,-1.95 0.67,-0.47 1.49,-1.06 2.46,-1.8 0.98,-0.78 1.92,-1.25 2.78,-1.48 0.86,-0.2 1.99,-0.55 3.39,-0.98 1.41,-0.43 2.74,-0.59 3.91,-0.47 3.83,0 7.5,1.05 11.09,3.24 3.6,2.19 6.25,5.82 7.97,10.9 1.33,3.83 1.96,9.18 1.96,16.13 0,8.17 -0.63,14.18 -1.96,18.09 -2.93,8.91 -8.98,13.36 -18.24,13.36 -3.24,0 -6.56,-0.82 -9.92,-2.46 -3.36,-1.6 -6.13,-3.95 -8.32,-6.99 l -0.98,-1.29 z"
         style="fill:#000000;fill-opacity:1;fill-rule:nonzero;stroke:none"
         id="path264"
         inkscape:connector-curvature="0" /><path
         d="m 3588.09,2664.06 h 2.26 c 4.26,0 6.8,0.74 7.66,2.27 v 1.33 c 0,0.97 0,2.22 0,3.75 0,1.52 0,3.28 0,5.35 0,2.07 0.08,4.41 0.15,7.03 0.12,2.58 0.12,5.31 0,8.12 -0.07,2.82 -0.07,5.82 0,8.95 0.12,3.16 0.12,6.25 0,9.3 0,4.02 0,8.24 0,12.69 0,4.45 0,8.56 0,12.23 0,3.71 0,6.95 0,9.76 0,2.86 -0.03,5.24 -0.15,7.19 -0.08,1.95 -0.08,2.85 0,2.77 -0.31,2.07 -1.1,3.4 -2.27,4.07 -1.21,0.66 -3.63,1.13 -7.34,1.44 h -2.93 v 3.75 c 0,2.5 0.12,3.75 0.35,3.75 l 1.6,0.16 c 1.1,0.12 2.66,0.23 4.73,0.35 2.07,0.12 4.06,0.2 6.01,0.31 1.88,0.12 3.87,0.24 6.06,0.32 2.15,0.11 3.79,0.27 4.88,0.5 1.1,0.24 1.68,0.28 1.8,0.16 h 0.47 v -51.29 c 0,-34.45 0.08,-51.76 0.15,-51.99 0.47,-0.86 1.1,-1.45 1.96,-1.76 2.3,-0.35 4.96,-0.51 8,-0.51 h 2.58 v -7.5 h -1.29 l -3.75,0.16 c -2.5,0.12 -5.15,0.19 -7.97,0.19 -2.81,0 -4.88,0.04 -6.21,0.16 -1.29,0.08 -3.36,0.08 -6.17,0 -2.81,-0.12 -5.54,-0.23 -8.16,-0.35 l -3.71,-0.16 h -1.33 v 7.5 z"
         style="fill:#000000;fill-opacity:1;fill-rule:nonzero;stroke:none"
         id="path266"
         inkscape:connector-curvature="0" /><path
         d="m 3631.09,2692.07 c 0,5.98 1.1,11.41 3.25,16.29 2.18,4.88 4.88,8.87 8.16,11.91 3.24,3.01 6.76,5.32 10.59,6.84 3.79,1.52 7.38,2.34 10.74,2.42 5.74,0 10.7,-0.98 14.8,-2.93 4.14,-1.95 7.31,-4.65 9.46,-8.12 2.18,-3.48 3.71,-6.96 4.57,-10.43 0.86,-3.48 1.36,-7.35 1.48,-11.57 0,-0.78 -0.39,-1.52 -1.17,-2.3 h -45.94 v -2.42 c 0,-16.1 5.43,-25.86 16.29,-29.34 2.19,-0.62 4.57,-0.97 7.19,-0.97 4.57,0 8.47,1.75 11.72,5.23 1.83,1.84 3.32,4.1 4.41,6.84 l 1.6,3.9 c 0.35,0.31 1.21,0.47 2.62,0.47 h 0.51 c 1.83,0 2.77,-0.51 2.77,-1.6 0,-0.43 -0.19,-1.13 -0.51,-2.11 -2.07,-5.98 -5.47,-10.7 -10.27,-14.18 -4.77,-3.48 -10.16,-5.23 -16.09,-5.23 -10.36,0 -18.91,3.75 -25.75,11.25 -6.83,7.5 -10.31,16.17 -10.43,26.05 z m 49.69,9.3 c -1.21,13.9 -6.37,21.29 -15.47,22.15 h -0.35 c -0.86,0 -1.72,-0.04 -2.62,-0.16 -0.86,-0.12 -2.22,-0.55 -4.06,-1.29 -1.83,-0.78 -3.4,-1.91 -4.73,-3.44 -1.28,-1.52 -2.53,-3.75 -3.75,-6.68 -1.17,-2.93 -2.03,-6.52 -2.57,-10.74 v -1.13 h 33.55 z"
         style="fill:#000000;fill-opacity:1;fill-rule:nonzero;stroke:none"
         id="path268"
         inkscape:connector-curvature="0" /><path
         d="m 3201.99,1385.47 c 0,706.9501 -573.08,1280.0001 -1280,1280.0001 -706.91,0 -1280.00203,-573.05 -1280.00203,-1280.0001 0,-706.9189 573.09203,-1280.00095 1280.00203,-1280.00095 706.92,0 1280,573.08205 1280,1280.00095"
         style="fill:none;stroke:#0000ff;stroke-width:8.00250043;stroke-linecap:butt;stroke-linejoin:round;stroke-miterlimit:10;stroke-dasharray:48.01500263,8.00250043;stroke-opacity:1;stroke-dashoffset:0"
         id="path78-7"
         inkscape:connector-curvature="0" /><path
         style="fill:none;stroke:#000000;stroke-width:7.23423958px;stroke-linecap:butt;stroke-linejoin:miter;stroke-opacity:1;marker-end:url(#Arrow1Lend)"
         d="m 1928.7077,2886.5903 v -211.925"
         id="path1132"
         inkscape:connector-curvature="0" /><path
         style="fill:none;stroke:#000000;stroke-width:7.23423958px;stroke-linecap:butt;stroke-linejoin:miter;stroke-opacity:1;marker-end:url(#Arrow1Lend-3)"
         d="m 1718.4852,2875.9085 v -211.925"
         id="path1132-8"
         inkscape:connector-curvature="0" /><path
         style="fill:none;stroke:#000000;stroke-width:7.23423958px;stroke-linecap:butt;stroke-linejoin:miter;stroke-opacity:1;marker-end:url(#Arrow1Lend-3-1)"
         d="m 2138.7624,2870.2121 v -211.925"
         id="path1132-8-7"
         inkscape:connector-curvature="0" /><path
         style="fill:none;stroke:#000000;stroke-width:7.23423958px;stroke-linecap:butt;stroke-linejoin:miter;stroke-opacity:1;marker-end:url(#Arrow1Lend-3-1-8)"
         d="m 2347.7219,2821.7131 v -211.925"
         id="path1132-8-7-5"
         inkscape:connector-curvature="0" /><path
         style="fill:none;stroke:#000000;stroke-width:7.23423958px;stroke-linecap:butt;stroke-linejoin:miter;stroke-opacity:1;marker-end:url(#Arrow1Lend-3-1-8-2)"
         d="m 2556.0382,2725.7495 v -211.925"
         id="path1132-8-7-5-6"
         inkscape:connector-curvature="0" /><path
         style="fill:none;stroke:#000000;stroke-width:7.23423958px;stroke-linecap:butt;stroke-linejoin:miter;stroke-opacity:1;marker-end:url(#Arrow1Lend-3-1-8-2-4)"
         d="m 2765.8359,2572.7225 v -211.925"
         id="path1132-8-7-5-6-9"
         inkscape:connector-curvature="0" /><path
         style="fill:none;stroke:#000000;stroke-width:7.23423958px;stroke-linecap:butt;stroke-linejoin:miter;stroke-opacity:1;marker-end:url(#Arrow1Lend-3-1-8-2-4-1)"
         d="m 2975.6336,2337.1123 v -211.925"
         id="path1132-8-7-5-6-9-8"
         inkscape:connector-curvature="0" /><path
         style="fill:none;stroke:#000000;stroke-width:7.23423958px;stroke-linecap:butt;stroke-linejoin:miter;stroke-opacity:1;marker-end:url(#Arrow1Lend-3-1-8-2-4-1-2)"
         d="m 3185.4313,1829.5476 v -211.925"
         id="path1132-8-7-5-6-9-8-9"
         inkscape:connector-curvature="0" /><path
         style="fill:none;stroke:#000000;stroke-width:7.23423958px;stroke-linecap:butt;stroke-linejoin:miter;stroke-opacity:1;marker-end:url(#Arrow1Lend-3-7)"
         d="M 1508.6875,2820.489 V 2608.564"
         id="path1132-8-1"
         inkscape:connector-curvature="0" /><path
         style="fill:none;stroke:#000000;stroke-width:7.23423958px;stroke-linecap:butt;stroke-linejoin:miter;stroke-opacity:1;marker-end:url(#Arrow1Lend-3-7-7)"
         d="m 1298.8898,2729.1982 v -211.925"
         id="path1132-8-1-9"
         inkscape:connector-curvature="0" /><path
         style="fill:none;stroke:#000000;stroke-width:7.23423958px;stroke-linecap:butt;stroke-linejoin:miter;stroke-opacity:1;marker-end:url(#Arrow1Lend-3-7-7-3)"
         d="m 1089.0921,2583.6834 v -211.925"
         id="path1132-8-1-9-6"
         inkscape:connector-curvature="0" /><path
         style="fill:none;stroke:#000000;stroke-width:7.23423958px;stroke-linecap:butt;stroke-linejoin:miter;stroke-opacity:1;marker-end:url(#Arrow1Lend-3-7-7-3-9)"
         d="m 879.2944,2357.9449 v -211.925"
         id="path1132-8-1-9-6-9"
         inkscape:connector-curvature="0" /><path
         style="fill:none;stroke:#000000;stroke-width:7.23423958px;stroke-linecap:butt;stroke-linejoin:miter;stroke-opacity:1;marker-end:url(#Arrow1Lend-3-7-7-3-9-5)"
         d="m 669.49669,1884.4569 v -211.925"
         id="path1132-8-1-9-6-9-3"
         inkscape:connector-curvature="0" /></g></g></svg>