<?xml version="1.0" encoding="UTF-8" standalone="no"?>
<!-- Created with Inkscape (http://www.inkscape.org/) -->

<svg
   xmlns:rendltx="http://NOTSET"
   xmlns:dc="http://purl.org/dc/elements/1.1/"
   xmlns:cc="http://creativecommons.org/ns#"
   xmlns:rdf="http://www.w3.org/1999/02/22-rdf-syntax-ns#"
   xmlns:svg="http://www.w3.org/2000/svg"
   xmlns="http://www.w3.org/2000/svg"
   xmlns:xlink="http://www.w3.org/1999/xlink"
   xmlns:sodipodi="http://sodipodi.sourceforge.net/DTD/sodipodi-0.dtd"
   xmlns:inkscape="http://www.inkscape.org/namespaces/inkscape"
   version="1.1"
   id="svg2"
   xml:space="preserve"
   width="620"
   height="420"
   viewBox="0 0 620 420"
   sodipodi:docname="distribution_tension_gen_v2.svg"
   inkscape:version="0.92.4 (5da689c313, 2019-01-14)"><metadata
     id="metadata8"><rdf:RDF><cc:Work
         rdf:about=""><dc:format>image/svg+xml</dc:format><dc:type
           rdf:resource="http://purl.org/dc/dcmitype/StillImage" /><dc:title /></cc:Work></rdf:RDF></metadata><defs
     id="defs6"><marker
       inkscape:isstock="true"
       style="overflow:visible;"
       id="marker5543"
       refX="0.0"
       refY="0.0"
       orient="auto"
       inkscape:stockid="Arrow1Mend"><path
         transform="scale(0.4) rotate(180) translate(10,0)"
         style="fill-rule:evenodd;stroke:#000000;stroke-width:1pt;stroke-opacity:1;fill:#000000;fill-opacity:1"
         d="M 0.0,0.0 L 5.0,-5.0 L -12.5,0.0 L 5.0,5.0 L 0.0,0.0 z "
         id="path5541" /></marker><marker
       inkscape:stockid="Arrow1Mend"
       orient="auto"
       refY="0.0"
       refX="0.0"
       id="Arrow1Mend"
       style="overflow:visible;"
       inkscape:isstock="true"
       inkscape:collect="always"><path
         id="path4837"
         d="M 0.0,0.0 L 5.0,-5.0 L -12.5,0.0 L 5.0,5.0 L 0.0,0.0 z "
         style="fill-rule:evenodd;stroke:#000000;stroke-width:1pt;stroke-opacity:1;fill:#000000;fill-opacity:1"
         transform="scale(0.4) rotate(180) translate(10,0)" /></marker><marker
       inkscape:stockid="Arrow2Mstart"
       orient="auto"
       refY="0.0"
       refX="0.0"
       id="Arrow2Mstart"
       style="overflow:visible"
       inkscape:isstock="true"><path
         id="path4852"
         style="fill-rule:evenodd;stroke-width:0.625;stroke-linejoin:round;stroke:#000000;stroke-opacity:1;fill:#000000;fill-opacity:1"
         d="M 8.7185878,4.0337352 L -2.2072895,0.016013256 L 8.7185884,-4.0017078 C 6.9730900,-1.6296469 6.9831476,1.6157441 8.7185878,4.0337352 z "
         transform="scale(0.6) translate(0,0)" /></marker><marker
       inkscape:stockid="Arrow1Lstart"
       orient="auto"
       refY="0.0"
       refX="0.0"
       id="Arrow1Lstart"
       style="overflow:visible"
       inkscape:isstock="true"><path
         id="path4828"
         d="M 0.0,0.0 L 5.0,-5.0 L -12.5,0.0 L 5.0,5.0 L 0.0,0.0 z "
         style="fill-rule:evenodd;stroke:#000000;stroke-width:1pt;stroke-opacity:1;fill:#000000;fill-opacity:1"
         transform="scale(0.8) translate(12.5,0)" /></marker><marker
       inkscape:stockid="Arrow1Lend"
       orient="auto"
       refY="0.0"
       refX="0.0"
       id="Arrow1Lend"
       style="overflow:visible;"
       inkscape:isstock="true"><path
         id="path4831"
         d="M 0.0,0.0 L 5.0,-5.0 L -12.5,0.0 L 5.0,5.0 L 0.0,0.0 z "
         style="fill-rule:evenodd;stroke:#000000;stroke-width:1pt;stroke-opacity:1;fill:#000000;fill-opacity:1"
         transform="scale(0.8) rotate(180) translate(12.5,0)" /></marker><clipPath
       clipPathUnits="userSpaceOnUse"
       id="clipPath26"><path
         d="M 0,3 V 1620 H 5 V 3 Z"
         id="path24"
         inkscape:connector-curvature="0" /></clipPath><clipPath
       clipPathUnits="userSpaceOnUse"
       id="clipPath36"><path
         d="M 0,3 V 20 H 3845 V 3 Z"
         id="path34"
         inkscape:connector-curvature="0" /></clipPath><clipPath
       clipPathUnits="userSpaceOnUse"
       id="clipPath138"><path
         d="m 3840,3 v 1617 h 10 V 3 Z"
         id="path136"
         inkscape:connector-curvature="0" /></clipPath></defs><sodipodi:namedview
     pagecolor="#ffffff"
     bordercolor="#666666"
     borderopacity="1"
     objecttolerance="10"
     gridtolerance="10"
     guidetolerance="10"
     inkscape:pageopacity="0"
     inkscape:pageshadow="2"
     inkscape:window-width="1283"
     inkscape:window-height="565"
     id="namedview4"
     showgrid="false"
     inkscape:zoom="1.1238095"
     inkscape:cx="319.98136"
     inkscape:cy="-155.8961"
     inkscape:window-x="354"
     inkscape:window-y="324"
     inkscape:window-maximized="0"
     inkscape:current-layer="ltx-render-layer" /><g
     id="g10"
     inkscape:groupmode="layer"
     inkscape:label="ink_ext_XXXXXX"
     transform="matrix(1.3333333,0,0,-1.3333333,0,420)"><g
       id="g12"
       transform="scale(0.1)"><path
   d="m 3194.73,1616.48 c 0,-456.05 -242.58,-877.5 -636.37,-1105.5 -393.79,-228.05 -878.95,-228.05 -1272.73,0 -393.79,228 -636.368,649.45 -636.368,1105.5"
   style="fill:none;stroke:#ff00ff;stroke-width:26.99250031;stroke-linecap:butt;stroke-linejoin:miter;stroke-miterlimit:4;stroke-dasharray:none;stroke-opacity:1"
   id="path14"
   inkscape:connector-curvature="0" /><path
   d="m 3201.99,1610.47 c 0,-706.919 -573.08,-1280.001 -1280,-1280.001 -706.91,0 -1280.002,573.082 -1280.002,1280.001"
   style="fill:none;stroke:#000000;stroke-width:4;stroke-linecap:butt;stroke-linejoin:round;stroke-miterlimit:10;stroke-dasharray:none;stroke-opacity:1"
   id="path16"
   inkscape:connector-curvature="0" /><path
   d="m 3201.99,1614.65 h 640"
   style="fill:none;stroke:#000000;stroke-width:4;stroke-linecap:butt;stroke-linejoin:round;stroke-miterlimit:10;stroke-dasharray:none;stroke-opacity:1"
   id="path18"
   inkscape:connector-curvature="0" /><g
   id="g20"><g
     id="g22"
     clip-path="url(#clipPath26)"><path
       d="M 1.98828,1610.47 V 10.4688"
       style="fill:none;stroke:#000000;stroke-width:4;stroke-linecap:butt;stroke-linejoin:round;stroke-miterlimit:10;stroke-dasharray:none;stroke-opacity:1"
       id="path28"
       inkscape:connector-curvature="0" /></g></g><g
   id="g30"><g
     id="g32"
     clip-path="url(#clipPath36)"><path
       d="m 1.98828,10.4688 c 1344.03172,0 1728.01172,0 2160.00172,0 431.99,0 911.99,0 1680,0"
       style="fill:none;stroke:#000000;stroke-width:4;stroke-linecap:butt;stroke-linejoin:round;stroke-miterlimit:10;stroke-dasharray:none;stroke-opacity:1"
       id="path38"
       inkscape:connector-curvature="0" /></g></g><path
   d="m 1921.99,1610.47 h 1280"
   style="fill:none;stroke:#000000;stroke-width:4;stroke-linecap:butt;stroke-linejoin:round;stroke-miterlimit:10;stroke-dasharray:10, 30;stroke-dashoffset:0;stroke-opacity:1"
   id="path44"
   inkscape:connector-curvature="0" /><path
   d="M 641.988,1610.47 H 1.98828"
   style="fill:none;stroke:#000000;stroke-width:4;stroke-linecap:butt;stroke-linejoin:round;stroke-miterlimit:10;stroke-dasharray:none;stroke-opacity:1"
   id="path76"
   inkscape:connector-curvature="0" /><path
   d="m 3201.99,1610.47 c 0,706.95 -573.08,1280 -1280,1280 -706.91,0 -1280.002,-573.05 -1280.002,-1280 0,-706.919 573.092,-1280.001 1280.002,-1280.001 706.92,0 1280,573.082 1280,1280.001"
   style="fill:none;stroke:#0000ff;stroke-width:8;stroke-linecap:butt;stroke-linejoin:round;stroke-miterlimit:10;stroke-dasharray:none;stroke-opacity:1"
   id="path78"
   inkscape:connector-curvature="0" /><path
   d="m 4001.99,490.469 h 480"
   style="fill:none;stroke:#000000;stroke-width:4;stroke-linecap:butt;stroke-linejoin:round;stroke-miterlimit:10;stroke-dasharray:none;stroke-opacity:1"
   id="path116"
   inkscape:connector-curvature="0" /><path
   d="m 4481.99,490.469 -70,23.32 v -46.598 z"
   style="fill:#000000;fill-opacity:1;fill-rule:evenodd;stroke:none"
   id="path118"
   inkscape:connector-curvature="0" /><path
   d="m 4481.99,490.469 -70,23.32 v -46.598 z"
   style="fill:none;stroke:#000000;stroke-width:4;stroke-linecap:butt;stroke-linejoin:round;stroke-miterlimit:10;stroke-dasharray:none;stroke-opacity:1"
   id="path120"
   inkscape:connector-curvature="0" /><path
   d="m 4001.99,490.469 v 480"
   style="fill:none;stroke:#000000;stroke-width:4;stroke-linecap:butt;stroke-linejoin:round;stroke-miterlimit:10;stroke-dasharray:none;stroke-opacity:1"
   id="path122"
   inkscape:connector-curvature="0" /><path
   d="m 4001.99,970.469 -23.32,-70 h 46.64 z"
   style="fill:#000000;fill-opacity:1;fill-rule:evenodd;stroke:none"
   id="path124"
   inkscape:connector-curvature="0" /><path
   d="m 4001.99,970.469 -23.32,-70 h 46.64 z"
   style="fill:none;stroke:#000000;stroke-width:4;stroke-linecap:butt;stroke-linejoin:round;stroke-miterlimit:10;stroke-dasharray:none;stroke-opacity:1"
   id="path126"
   inkscape:connector-curvature="0" /><path
   d="m 4642.46,602.809 c 1.09,1.101 2.03,2.191 2.03,3.91 0,1.25 -0.31,1.402 -4.22,1.402 h -71.09 c -3.91,0 -4.06,-0.152 -5.16,-3.281 l -9.53,-31.09 c -0.47,-1.719 -0.47,-2.031 -0.47,-2.34 0,-0.629 0.47,-1.719 1.72,-1.719 1.41,0 1.72,0.618 2.35,2.969 6.4,18.59 14.84,30.461 42.03,30.461 h 28.28 L 4534.02,496.25 c -1.56,-1.879 -2.18,-2.5 -2.18,-4.379 0,-1.402 0.78,-1.402 4.06,-1.402 h 73.59 c 3.91,0 4.06,0.152 5.16,3.281 l 12.03,37.969 c 0.16,0.621 0.47,1.871 0.47,2.5 0,0.781 -0.63,1.722 -1.72,1.722 -1.41,0 -1.56,-0.16 -2.81,-4.531 -7.35,-22.191 -14.85,-35.629 -44.85,-35.629 h -29.84 z"
   style="fill:#000000;fill-opacity:1;fill-rule:nonzero;stroke:none"
   id="path128"
   inkscape:connector-curvature="0" /><path
   d="m 4103.24,1108.91 3.91,4.06 c 7.65,7.65 14.06,9.53 20,10.15 1.87,0.16 3.44,0.32 3.44,3.29 0,1.71 -1.72,1.71 -2.04,1.71 -2.03,0 -4.37,-0.46 -6.4,-0.46 h -7.03 c -5,0 -10.32,0.46 -15.16,0.46 -1.25,0 -3.12,0 -3.12,-3.28 0,-1.56 1.71,-1.72 2.34,-1.72 5.16,-0.31 5.16,-2.96 5.16,-4.06 0,-1.87 -1.41,-4.37 -4.85,-8.44 l -41.09,-46.87 -19.38,52.34 c -1.09,2.35 -1.09,2.66 -1.09,2.97 0,3.75 7.19,4.06 9.22,4.06 2.03,0 3.9,0 3.9,3.13 0,1.87 -1.56,1.87 -2.5,1.87 -2.96,0 -6.4,-0.46 -9.37,-0.46 h -19.06 c -3.13,0 -6.41,0.46 -9.38,0.46 -1.25,0 -3.12,0 -3.12,-3.28 0,-1.72 1.56,-1.72 4.22,-1.72 8.43,0 10,-1.56 11.56,-5.62 l 21.25,-57.34 c 0.15,-0.47 0.78,-2.35 0.78,-2.82 0,-0.62 -8.44,-34.53 -9.06,-36.25 -1.25,-4.53 -2.97,-5.47 -14.07,-5.62 -2.96,0 -4.37,0 -4.37,-3.28 0,-1.72 2.03,-1.72 2.5,-1.72 3.12,0 6.72,0.31 10,0.31 h 20.31 c 3.13,0 6.72,-0.31 9.85,-0.31 1.09,0 3.28,0 3.28,3.12 0,1.88 -1.25,1.88 -4.22,1.88 -10.63,0 -10.63,1.25 -10.63,3.12 0,1.25 1.41,6.72 2.19,10.16 l 6.25,24.84 c 0.94,3.6 0.94,3.91 2.5,5.63 z"
   style="fill:#000000;fill-opacity:1;fill-rule:nonzero;stroke:none"
   id="path130"
   inkscape:connector-curvature="0" /><g
   id="g132"><g
     id="g134"
     clip-path="url(#clipPath138)"><path
       d="M 3844.45,1610.47 V 10.4688"
       style="fill:none;stroke:#000000;stroke-width:4;stroke-linecap:butt;stroke-linejoin:round;stroke-miterlimit:10;stroke-dasharray:none;stroke-opacity:1"
       id="path140"
       inkscape:connector-curvature="0" /></g></g><path
   d="m 1924.45,1610.47 -640,-1108.482"
   style="fill:none;stroke:#000000;stroke-width:4;stroke-linecap:butt;stroke-linejoin:round;stroke-miterlimit:10;stroke-dasharray:10, 30;stroke-dashoffset:0;stroke-opacity:1"
   id="path174"
   inkscape:connector-curvature="0" /><path
   d="M 1924.45,1610.47 H 644.449"
   style="fill:none;stroke:#000000;stroke-width:4;stroke-linecap:butt;stroke-linejoin:round;stroke-miterlimit:10;stroke-dasharray:10, 30;stroke-dashoffset:0;stroke-opacity:1"
   id="path178"
   inkscape:connector-curvature="0" /><path
   d="m 1033.0152,1191.7055 c 0,1.25 -1.094,1.25 -1.402,1.25 -1.411,0 -1.571,-0.31 -2.04,-2.66 l -7.808,-30.93 c -0.473,-1.88 -0.621,-2.04 -0.621,-2.04 -0.16,-0.31 -1.25,-0.46 -1.571,-0.46 -23.42898,-2.04 -41.55798,-21.41 -41.55798,-39.38 0,-15.47 11.879,-25 26.87898,-25.78 -1.25,-4.38 -2.192,-9.06 -3.281,-13.44 -2.03998,-7.65 -3.12898,-12.34 -3.12898,-12.97 0,-0.31 0,-1.09 1.41,-1.09 0.30798,0 0.92898,0 1.24998,0.47 0.308,0.31 1.09,3.75 1.719,5.62 l 5.308,21.41 c 24.531,1.25 43.121,21.41 43.121,39.37 0,14.54 -10.929,24.85 -26.719,25.94 z m -9.371,-37.66 c 9.527,-0.47 18.898,-5.78 18.898,-19.84 0,-16.25 -11.25,-37.81 -33.59,-39.53 z m -18.129,-59.53 c -7.03098,0.47 -18.74998,4.22 -18.74998,20 0,18.13 13.129,38.13 33.74998,39.38 z"
   style="fill:#000000;fill-opacity:1;fill-rule:nonzero;stroke:none"
   id="path186"
   inkscape:connector-curvature="0" /><path
   d="m 1924.45,1610.47 v 1440"
   style="fill:none;stroke:#ff0000;stroke-width:4;stroke-linecap:butt;stroke-linejoin:round;stroke-miterlimit:10;stroke-dasharray:none;stroke-opacity:1"
   id="path188"
   inkscape:connector-curvature="0" /><path
   d="m 1924.45,3050.47 -23.32,-70 h 46.6 z"
   style="fill:#ff0000;fill-opacity:1;fill-rule:evenodd;stroke:none"
   id="path190"
   inkscape:connector-curvature="0" /><path
   d="m 1924.45,3050.47 -23.32,-70 h 46.6 z"
   style="fill:none;stroke:#ff0000;stroke-width:4;stroke-linecap:butt;stroke-linejoin:round;stroke-miterlimit:10;stroke-dasharray:none;stroke-opacity:1"
   id="path192"
   inkscape:connector-curvature="0" /><path
   d="m 1996.64,3146.41 c 0.16,0.62 0.47,1.4 0.47,2.18 0,1.41 -1.56,1.41 -1.88,1.41 0,0 -7.03,-0.63 -7.81,-0.63 -2.5,-0.15 -4.53,-0.46 -7.19,-0.62 -3.59,-0.31 -4.53,-0.47 -4.53,-2.97 0,-1.56 1.1,-1.56 3.13,-1.56 7.03,0 7.19,-1.25 7.19,-2.66 0,-0.94 -0.32,-2.03 -0.47,-2.5 l -8.75,-34.84 c -1.57,3.75 -5.47,9.53 -12.97,9.53 -16.1,0 -33.6,-20.94 -33.6,-42.19 0,-14.22 8.29,-22.5 17.97,-22.5 7.97,0 14.69,6.1 18.75,10.94 1.41,-8.59 8.13,-10.94 12.5,-10.94 4.22,0 7.66,2.5 10.32,7.66 2.18,5 4.21,13.75 4.21,14.22 0,0.78 -0.46,1.4 -1.4,1.4 -1.25,0 -1.41,-0.78 -2.03,-2.97 -2.19,-8.43 -4.85,-17.5 -10.78,-17.5 -4.07,0 -4.38,3.75 -4.38,6.57 0,0.62 0,3.59 0.94,7.65 z m -29.06,-78.91 c -0.63,-2.34 -0.63,-2.66 -2.66,-5.47 -3.12,-3.91 -9.53,-10.16 -16.25,-10.16 -5.78,0 -9.22,5.32 -9.22,13.75 0,7.97 4.53,24.07 7.19,30 5,10 11.72,15.16 17.19,15.16 9.53,0 11.4,-11.72 11.4,-12.81 0,-0.16 -0.46,-2.03 -0.62,-2.35 z"
   style="fill:#000000;fill-opacity:1;fill-rule:nonzero;stroke:none"
   id="path194"
   inkscape:connector-curvature="0" /><path
   d="m 2103.55,3133.44 c 1.57,6.09 3.91,10.47 14.85,10.78 0.47,0 2.19,0.15 2.19,2.65 0,1.57 -1.41,1.57 -1.88,1.57 -2.97,0 -10.16,-0.32 -13.12,-0.32 h -6.88 c -2.03,0 -4.53,0.32 -6.56,0.32 -0.94,0 -2.66,0 -2.66,-2.66 0,-1.56 1.25,-1.56 2.19,-1.56 8.59,-0.16 9.22,-3.6 9.22,-6.1 0,-1.25 -0.16,-1.71 -0.63,-3.75 l -16.25,-64.68 -30.62,76.25 c -0.94,2.34 -1.1,2.5 -4.38,2.5 h -17.5 c -2.81,0 -4.06,0 -4.06,-2.66 0,-1.56 0.94,-1.56 3.75,-1.56 0.63,0 9.06,0 9.06,-1.25 0,-0.31 -0.15,-1.41 -0.31,-1.88 l -19.06,-75.93 c -1.72,-7.04 -5.16,-10.16 -14.69,-10.47 -0.78,0 -2.19,-0.16 -2.19,-2.82 0,-1.4 1.41,-1.4 1.88,-1.4 2.97,0 10.15,0.31 13.12,0.31 h 6.88 c 2.03,0 4.37,-0.31 6.4,-0.31 0.94,0 2.66,0 2.66,2.65 0,1.41 -1.56,1.57 -2.03,1.57 -4.84,0.15 -9.38,0.93 -9.38,6.09 0,1.09 0.32,2.5 0.63,3.59 l 19.37,76.72 c 0.79,-1.4 0.79,-1.72 1.41,-2.97 l 34.06,-85 c 0.78,-1.71 1.1,-2.65 2.35,-2.65 1.4,0 1.56,0.47 2.18,2.81 z"
   style="fill:#000000;fill-opacity:1;fill-rule:nonzero;stroke:none"
   id="path196"
   inkscape:connector-curvature="0" /><path
   d="m 2942.38,2378.83 c 390.75,267.85 390.75,267.85 390.75,267.85"
   style="fill:#0000ff;fill-opacity:1;fill-rule:nonzero;stroke:none"
   id="path240"
   inkscape:connector-curvature="0" /><path
   style="fill:none;fill-opacity:1;stroke:#000000;stroke-width:8.00250043;stroke-miterlimit:10;stroke-dasharray:none;stroke-dashoffset:0;stroke-opacity:1;marker-start:url(#Arrow2Mstart)"
   id="path4826"
   transform="scale(1,-1)"
   sodipodi:type="arc"
   sodipodi:cx="1915.3162"
   sodipodi:cy="-1607.1331"
   sodipodi:rx="957.21753"
   sodipodi:ry="957.21753"
   sodipodi:start="2.1047632"
   sodipodi:end="3.1401204"
   d="M 1428.1384,-783.16509 A 957.21753,957.21753 0 0 1 958.09967,-1605.7238"
   sodipodi:open="true" /><path
   style="fill:none;stroke:#000000;stroke-width:7.5px;stroke-linecap:butt;stroke-linejoin:miter;stroke-opacity:1;marker-end:url(#Arrow1Mend)"
   d="M 1284.45,501.988 V 116.79024"
   id="path5474"
   inkscape:connector-curvature="0" /><path
   d="M 1286.1757,502.98433 1120.063,215.27659"
   style="fill:none;stroke:#000000;stroke-width:7.50000019;stroke-linecap:butt;stroke-linejoin:round;stroke-miterlimit:10;stroke-dasharray:none;stroke-dashoffset:0;stroke-opacity:1;marker-end:url(#marker5543)"
   id="path174-6"
   inkscape:connector-curvature="0" /><path
   style="fill:none;stroke:#000000;stroke-width:3.75000009;stroke-linecap:butt;stroke-linejoin:miter;stroke-opacity:1;stroke-miterlimit:4;stroke-dasharray:7.50000019,3.75000009;stroke-dashoffset:0"
   d="m 1111.9236,202.0339 172.6995,-99.70816"
   id="path5683"
   inkscape:connector-curvature="0" /><path
   style="fill:none;fill-opacity:1;stroke:#000000;stroke-width:3.75;stroke-miterlimit:4;stroke-dasharray:none;stroke-dashoffset:0;stroke-opacity:1"
   id="path5685"
   transform="scale(1,-1)"
   sodipodi:type="arc"
   sodipodi:cx="1284.623"
   sodipodi:cy="-102.32574"
   sodipodi:rx="112.5"
   sodipodi:ry="112.5"
   sodipodi:start="3.6694393"
   sodipodi:end="4.7155758"
   d="m 1187.435,-158.98909 a 112.5,112.5 0 0 1 97.5466,-55.83608"
   sodipodi:open="true" /><path
   d="m 1241.7533,283.12382 c 0,0.6865 -0.6008,0.6865 -0.77,0.6865 -0.7749,0 -0.8628,-0.17025 -1.1203,-1.46087 l -4.2882,-16.98674 c -0.2598,-1.03249 -0.341,-1.12036 -0.341,-1.12036 -0.088,-0.17026 -0.6865,-0.25264 -0.8628,-0.25264 -12.8672,-1.12036 -22.8236,-11.75835 -22.8236,-21.62747 0,-8.49611 6.5239,-13.72998 14.7619,-14.15836 -0.6865,-2.40549 -1.2039,-4.97574 -1.8019,-7.38123 -1.1204,-4.20138 -1.7184,-6.77713 -1.7184,-7.12312 0,-0.17025 0,-0.59863 0.7743,-0.59863 0.1691,0 0.5102,0 0.6865,0.25813 0.1691,0.17025 0.5986,2.05949 0.9441,3.0865 l 2.9151,11.75835 c 13.4724,0.6865 23.682,11.75836 23.682,21.62198 0,7.98536 -6.0022,13.64761 -14.674,14.24623 z m -5.1465,-20.68285 c 5.2322,-0.25812 10.3787,-3.17437 10.3787,-10.89611 0,-8.92449 -6.1785,-20.76523 -18.4476,-21.70985 z m -9.9565,-32.69384 c -3.8613,0.25813 -10.2974,2.31763 -10.2974,10.98399 0,9.95699 7.2104,20.94097 18.5354,21.62747 z"
   style="fill:#000000;fill-opacity:1;fill-rule:nonzero;stroke:none;stroke-width:0.54919934"
   id="path186-6"
   inkscape:connector-curvature="0" />



</g></g><g
     rendltx:math="False"
     rendltx:newline="False"
     rendltx:fontsize="10"
     rendltx:depth="0"
     rendltx:scale="1.0"
     rendltx:packages="amsmath,amssymb"
     rendltx:preamble=""
     id="ltx-render-layer"
     inkscape:groupmode="layer"
     inkscape:label="Rendered Latex"><g
   id="lx-text5704-8"
   transform="matrix(1.3656744,0,0,1.3656744,145.23393,380.63363)"><defs
   id="defs6004">
<g
   id="g6002">
<symbol
   id="lx-text5704-8-glyph0-0"
   overflow="visible"
   style="overflow:visible">
<path
   id="path5996"
   d=""
   style="stroke:none"
   inkscape:connector-curvature="0" />
</symbol>
<symbol
   id="lx-text5704-8-glyph0-1"
   overflow="visible"
   style="overflow:visible">
<path
   id="path5999"
   d="M 0.453125,1.21875 C 0.375,1.5625 0.34375,1.625 -0.09375,1.625 c -0.109375,0 -0.21875,0 -0.21875,0.1875 0,0.078125 0.046875,0.125 0.125,0.125 0.265625,0 0.5625,-0.03125 0.828125,-0.03125 0.34375,0 0.671875,0.03125 1,0.03125 0.046875,0 0.171875,0 0.171875,-0.203125 C 1.8125,1.625 1.71875,1.625 1.578125,1.625 c -0.5,0 -0.5,-0.0625 -0.5,-0.15625 0,-0.125 0.421875,-1.75 0.484375,-2 0.125,0.296875 0.40625,0.640625 0.921875,0.640625 1.15625,0 2.40625,-1.453125 2.40625,-2.921875 0,-0.9375 -0.578125,-1.59375 -1.328125,-1.59375 -0.5,0 -0.984375,0.359375 -1.3125,0.75 -0.09375,-0.546875 -0.53125,-0.75 -0.890625,-0.75 -0.46875,0 -0.65625,0.390625 -0.734375,0.5625 C 0.4375,-3.5 0.3125,-2.90625 0.3125,-2.875 c 0,0.109375 0.09375,0.109375 0.109375,0.109375 0.109375,0 0.109375,-0.015625 0.171875,-0.234375 0.171875,-0.703125 0.375,-1.1875 0.734375,-1.1875 0.171875,0 0.3125,0.078125 0.3125,0.453125 0,0.234375 -0.03125,0.34375 -0.078125,0.515625 z m 1.75,-4.328125 C 2.265625,-3.375 2.546875,-3.65625 2.71875,-3.8125 c 0.359375,-0.296875 0.640625,-0.375 0.8125,-0.375 0.390625,0 0.640625,0.34375 0.640625,0.9375 0,0.59375 -0.328125,1.734375 -0.515625,2.109375 -0.34375,0.703125 -0.8125,1.03125 -1.1875,1.03125 C 1.8125,-0.109375 1.6875,-0.9375 1.6875,-1 c 0,-0.015625 0,-0.03125 0.03125,-0.15625 z m 0,0"
   style="stroke:none"
   inkscape:connector-curvature="0" />
</symbol>
</g>
</defs>
<g
   id="lx-text5704-8-surface1">
<g
   id="g6008"
   style="fill:#000000;fill-opacity:1">
  <use
   id="use6006"
   y="0"
   x="0"
   xlink:href="#lx-text5704-8-glyph0-1"
   width="100%"
   height="100%" />
</g>
</g>
</g>
<g
   id="lx-text6049"
   transform="matrix(2.0123649,0,0,2.0123649,177.29897,403.61293)"><defs
   id="defs6172">
<g
   id="g6170">
<symbol
   id="lx-text6049-glyph0-0"
   overflow="visible"
   style="overflow:visible">
<path
   id="path6149"
   d=""
   style="stroke:none"
   inkscape:connector-curvature="0" />
</symbol>
<symbol
   id="lx-text6049-glyph0-1"
   overflow="visible"
   style="overflow:visible">
<path
   id="path6152"
   d="m 0.515625,0.84375 c -0.046875,0.203125 -0.0625,0.25 -0.328125,0.25 -0.09375,0 -0.1875,0 -0.1875,0.15625 0,0.078125 0.0625,0.109375 0.09375,0.109375 0.171875,0 0.40625,-0.03125 0.59375,-0.03125 0.234375,0 0.5,0.03125 0.734375,0.03125 0.0625,0 0.140625,-0.03125 0.140625,-0.15625 0,-0.109375 -0.09375,-0.109375 -0.1875,-0.109375 -0.15625,0 -0.34375,0 -0.34375,-0.078125 0,-0.03125 0.0625,-0.21875 0.078125,-0.3125 0.09375,-0.375 0.1875,-0.75 0.265625,-1.046875 0.078125,0.140625 0.296875,0.40625 0.71875,0.40625 0.84375,0 1.78125,-0.9375 1.78125,-1.96875 0,-0.8125 -0.5625,-1.171875 -1.03125,-1.171875 -0.4375,0 -0.8125,0.296875 -1,0.5 -0.109375,-0.40625 -0.5,-0.5 -0.71875,-0.5 -0.265625,0 -0.4375,0.1875 -0.546875,0.375 -0.140625,0.234375 -0.25,0.65625 -0.25,0.703125 0,0.078125 0.09375,0.078125 0.125,0.078125 0.09375,0 0.09375,-0.015625 0.140625,-0.203125 0.109375,-0.40625 0.25,-0.75 0.515625,-0.75 0.1875,0 0.234375,0.15625 0.234375,0.34375 0,0.078125 -0.015625,0.15625 -0.03125,0.203125 z M 1.84375,-2.234375 C 2.25,-2.78125 2.59375,-2.875 2.8125,-2.875 c 0.28125,0 0.515625,0.203125 0.515625,0.671875 0,0.28125 -0.15625,1 -0.359375,1.40625 -0.1875,0.34375 -0.515625,0.671875 -0.875,0.671875 -0.5,0 -0.625,-0.53125 -0.625,-0.609375 0,-0.03125 0.015625,-0.078125 0.015625,-0.109375 z m 0,0"
   style="stroke:none"
   inkscape:connector-curvature="0" />
</symbol>
<symbol
   id="lx-text6049-glyph0-2"
   overflow="visible"
   style="overflow:visible">
<path
   id="path6155"
   d="m 3.421875,-4.75 c 0,-0.09375 -0.078125,-0.09375 -0.109375,-0.09375 -0.109375,0 -0.109375,0.046875 -0.140625,0.15625 L 2.78125,-3.09375 c -1.234375,0.0625 -2.296875,0.953125 -2.296875,1.875 0,0.796875 0.71875,1.265625 1.5,1.296875 C 1.921875,0.296875 1.875,0.515625 1.8125,0.734375 1.734375,1.0625 1.671875,1.3125 1.671875,1.34375 c 0,0.078125 0.09375,0.078125 0.109375,0.078125 0.109375,0 0.109375,-0.015625 0.15625,-0.171875 L 2.21875,0.078125 c 1.203125,-0.046875 2.296875,-0.921875 2.296875,-1.875 0,-0.71875 -0.640625,-1.25 -1.5,-1.28125 z M 2.03125,-0.125 C 1.484375,-0.140625 1,-0.4375 1,-1.09375 1,-1.796875 1.53125,-2.78125 2.71875,-2.890625 Z m 0.9375,-2.765625 C 3.5,-2.859375 4,-2.578125 4,-1.90625 c 0,0.75 -0.59375,1.6875 -1.734375,1.78125 z m 0,0"
   style="stroke:none"
   inkscape:connector-curvature="0" />
</symbol>
<symbol
   id="lx-text6049-glyph1-0"
   overflow="visible"
   style="overflow:visible">
<path
   id="path6158"
   d=""
   style="stroke:none"
   inkscape:connector-curvature="0" />
</symbol>
<symbol
   id="lx-text6049-glyph1-1"
   overflow="visible"
   style="overflow:visible">
<path
   id="path6161"
   d="m 2.640625,-2.921875 c 0,-0.125 0,-0.1875 -0.09375,-0.1875 -0.03125,0 -0.046875,0 -0.140625,0.078125 -0.015625,0.015625 -0.078125,0.078125 -0.125,0.109375 -0.21875,-0.140625 -0.46875,-0.1875 -0.734375,-0.1875 -1,0 -1.234375,0.53125 -1.234375,0.875 0,0.21875 0.09375,0.40625 0.265625,0.546875 0.265625,0.21875 0.53125,0.265625 0.96875,0.34375 0.34375,0.0625 0.90625,0.15625 0.90625,0.625 0,0.265625 -0.1875,0.59375 -0.859375,0.59375 -0.671875,0 -0.90625,-0.4375 -1.03125,-0.90625 -0.03125,-0.09375 -0.03125,-0.125 -0.125,-0.125 -0.125,0 -0.125,0.046875 -0.125,0.1875 v 0.859375 C 0.3125,0 0.3125,0.0625 0.40625,0.0625 0.46875,0.0625 0.609375,-0.078125 0.75,-0.234375 1.046875,0.0625 1.421875,0.0625 1.59375,0.0625 c 0.90625,0 1.25,-0.484375 1.25,-0.96875 0,-0.265625 -0.125,-0.484375 -0.3125,-0.640625 -0.265625,-0.25 -0.578125,-0.3125 -0.828125,-0.34375 -0.546875,-0.109375 -1,-0.1875 -1,-0.5625 0,-0.21875 0.1875,-0.484375 0.84375,-0.484375 0.8125,0 0.84375,0.5625 0.859375,0.765625 0,0.078125 0.09375,0.078125 0.109375,0.078125 0.125,0 0.125,-0.046875 0.125,-0.1875 z m 0,0"
   style="stroke:none"
   inkscape:connector-curvature="0" />
</symbol>
<symbol
   id="lx-text6049-glyph1-2"
   overflow="visible"
   style="overflow:visible">
<path
   id="path6164"
   d="m 1.46875,-4.296875 c 0,-0.203125 -0.171875,-0.40625 -0.40625,-0.40625 -0.203125,0 -0.390625,0.171875 -0.390625,0.40625 0,0.25 0.203125,0.40625 0.390625,0.40625 0.234375,0 0.40625,-0.171875 0.40625,-0.40625 z M 0.40625,-3 v 0.25 c 0.4375,0 0.5,0.046875 0.5,0.390625 v 1.8125 C 0.90625,-0.25 0.84375,-0.25 0.390625,-0.25 V 0 c 0.015625,0 0.5,-0.03125 0.78125,-0.03125 0.25,0 0.5,0.015625 0.734375,0.03125 V -0.25 C 1.5,-0.25 1.4375,-0.25 1.4375,-0.546875 v -2.53125 z m 0,0"
   style="stroke:none"
   inkscape:connector-curvature="0" />
</symbol>
<symbol
   id="lx-text6049-glyph1-3"
   overflow="visible"
   style="overflow:visible">
<path
   id="path6167"
   d="m 3.59375,-2.109375 c 0,-0.609375 -0.296875,-0.96875 -1.046875,-0.96875 -0.578125,0 -0.9375,0.3125 -1.140625,0.6875 v -0.6875 L 0.375,-3 v 0.25 c 0.46875,0 0.53125,0.046875 0.53125,0.390625 v 1.8125 C 0.90625,-0.25 0.828125,-0.25 0.375,-0.25 V 0 C 0.390625,0 0.875,-0.03125 1.171875,-0.03125 1.421875,-0.03125 1.90625,0 1.96875,0 v -0.25 c -0.453125,0 -0.515625,0 -0.515625,-0.296875 V -1.8125 c 0,-0.71875 0.578125,-1.0625 1.03125,-1.0625 0.484375,0 0.546875,0.375 0.546875,0.734375 v 1.59375 C 3.03125,-0.25 2.96875,-0.25 2.515625,-0.25 V 0 C 2.53125,0 3.015625,-0.03125 3.3125,-0.03125 3.5625,-0.03125 4.046875,0 4.109375,0 v -0.25 c -0.453125,0 -0.515625,0 -0.515625,-0.296875 z m 0,0"
   style="stroke:none"
   inkscape:connector-curvature="0" />
</symbol>
</g>
</defs>
<g
   id="lx-text6049-surface1">
<g
   id="g6176"
   style="fill:#000000;fill-opacity:1">
  <use
   id="use6174"
   y="-7.8800001"
   x="5.928"
   xlink:href="#lx-text6049-glyph0-1"
   width="100%"
   height="100%" />
</g>
<path
   id="path6178"
   transform="matrix(1,0,0,-1,0,-5.926)"
   d="M -9.375e-4,-0.00178125 H 15.963906"
   style="fill:none;stroke:#000000;stroke-width:0.398;stroke-linecap:butt;stroke-linejoin:miter;stroke-miterlimit:10;stroke-opacity:1"
   inkscape:connector-curvature="0" />
<g
   id="g6186"
   style="fill:#000000;fill-opacity:1">
  <use
   id="use6180"
   y="0"
   x="0"
   xlink:href="#lx-text6049-glyph1-1"
   width="100%"
   height="100%" />
  <use
   id="use6182"
   y="0"
   x="3.156342"
   xlink:href="#lx-text6049-glyph1-2"
   width="100%"
   height="100%" />
  <use
   id="use6184"
   y="0"
   x="5.4116688"
   xlink:href="#lx-text6049-glyph1-3"
   width="100%"
   height="100%" />
</g>
<g
   id="g6190"
   style="fill:#000000;fill-opacity:1">
  <use
   id="use6188"
   y="0"
   x="11.172"
   xlink:href="#lx-text6049-glyph0-2"
   width="100%"
   height="100%" />
</g>
</g>
</g></g></svg>